<svg width="32" height="32" viewBox="0 0 32 32" fill="none" xmlns="http://www.w3.org/2000/svg">
<path d="M13.4328 25.59C14.724 25.1567 15.8967 24.6286 16.948 24V14.6667H24H27C27.5522 14.6667 28 15.1204 28 15.6727C28 16.225 27.5522 16.6788 27 16.6788H25.9619C25.5407 16.6788 25.1666 16.9437 25.0114 17.3353C24.5797 18.4246 24.0842 19.4243 23.5251 20.3434C23.2022 21.1037 22.727 21.7837 22.1377 22.345C21.9166 22.7829 22.0134 23.3305 22.4367 23.6102C23.5809 24.3664 24.8739 24.9894 26.3272 25.4598C27.0456 25.6924 27.3265 26.6991 26.9214 27.3364C26.6821 27.7129 26.2562 27.8727 25.8286 27.7457C23.7506 27.1284 21.9947 26.2374 20.5106 25.1066C20.1276 24.8148 19.5947 24.8065 19.2054 25.0897C17.7135 26.175 16.0144 27.0403 14.0846 27.7253C13.6225 27.8894 13.1378 27.7111 12.8829 27.2923C12.5188 26.6938 12.7687 25.8128 13.4328 25.59Z" fill="white"/>
<path d="M13.9297 13.5978H10.0703C9.91732 13.5978 9.80933 13.4551 9.85769 13.3169L11.7874 7.8029C11.8555 7.60834 12.1445 7.60834 12.2126 7.8029L14.1423 13.3169C14.1907 13.4551 14.0827 13.5978 13.9297 13.5978Z" fill="#1662D3"/>
<path fill-rule="evenodd" clip-rule="evenodd" d="M6 0C2.68629 0 0 2.68629 0 6V18C0 21.3137 2.68629 24 6 24H18C21.3137 24 24 21.3137 24 18V6C24 2.68629 21.3137 0 18 0H6ZM6.09025 20C4.62144 20 3.61161 18.594 4.14398 17.2901L8.68978 6.15674C8.90166 5.63783 9.24473 5.17674 9.68857 4.8144C11.0187 3.72853 12.9813 3.72853 14.3114 4.8144C14.7553 5.17674 15.0983 5.63783 15.3102 6.15674L19.856 17.2901C20.3884 18.594 19.3786 20 17.9098 20C17.0485 20 16.2756 19.4964 15.9635 18.7319L15.0318 16.4502C15.0051 16.3847 14.9389 16.3416 14.8651 16.3416H9.13486C9.0611 16.3416 8.9949 16.3847 8.96817 16.4502L8.03652 18.7319C7.72438 19.4964 6.95148 20 6.09025 20Z" fill="#1662D3"/>
<path fill-rule="evenodd" clip-rule="evenodd" d="M4.14398 17.2901C3.61161 18.594 4.62144 20 6.09025 20C6.95148 20 7.72438 19.4964 8.03652 18.7319L8.96817 16.4502C8.9949 16.3847 9.0611 16.3416 9.13486 16.3416H14.8651C14.9389 16.3416 15.0051 16.3847 15.0318 16.4502L15.9635 18.7319C16.2756 19.4964 17.0485 20 17.9098 20C19.3786 20 20.3884 18.594 19.856 17.2901L15.3102 6.15674C15.0983 5.63783 14.7553 5.17674 14.3114 4.8144C12.9813 3.72853 11.0187 3.72853 9.68857 4.8144C9.24473 5.17674 8.90166 5.63783 8.68978 6.15674L4.14398 17.2901ZM13.9297 13.5978H10.0703C9.91732 13.5978 9.80933 13.4551 9.85769 13.3169L11.7874 7.8029C11.8555 7.60834 12.1445 7.60834 12.2126 7.8029L14.1423 13.3169C14.1907 13.4551 14.0827 13.5978 13.9297 13.5978Z" fill="white"/>
<path opacity="0.5" d="M24 8H26C29.3137 8 32 10.6863 32 14V26C32 29.3137 29.3137 32 26 32H14C10.6863 32 8 29.3137 8 26V24H16.9481C15.8967 24.6286 14.724 25.1567 13.4328 25.59C12.7687 25.8128 12.5188 26.6938 12.8829 27.2923C13.1378 27.7111 13.6226 27.8894 14.0846 27.7253C16.0145 27.0403 17.7135 26.175 19.2054 25.0897C19.5948 24.8065 20.1277 24.8148 20.5106 25.1066C21.9947 26.2374 23.7507 27.1284 25.8286 27.7457C26.2562 27.8727 26.6822 27.7129 26.9215 27.3364C27.3265 26.6991 27.0456 25.6924 26.3272 25.4598C24.8739 24.9894 23.581 24.3664 22.4368 23.6102C22.0135 23.3305 21.9166 22.7829 22.1378 22.345C22.727 21.7837 23.2022 21.1037 23.5251 20.3434C24.0842 19.4243 24.5797 18.4246 25.0115 17.3353C25.1667 16.9437 25.5407 16.6788 25.9619 16.6788H27C27.5523 16.6788 28 16.225 28 15.6727C28 15.1204 27.5523 14.6667 27 14.6667H24V8Z" fill="#1662D3"/>
</svg>