<svg width="400" height="255" viewBox="0 0 400 255" fill="none" xmlns="http://www.w3.org/2000/svg">
<g clip-path="url(#clip0_2_10)">
<g filter="url(#filter0_d_2_10)">
<path d="M125.47 134H66.5301C44.146 134 26 152.641 26 175.636V228.055C26 238.634 37.6974 244.73 46.0071 238.483L74.2169 217.273H125.47C147.854 217.273 166 198.631 166 175.636C166 152.641 147.854 134 125.47 134Z" fill="white"/>
</g>
<path d="M48.078 167.733V170.505C49.779 170.652 51.606 170.736 53.811 170.736C55.806 170.736 58.41 170.61 59.88 170.484V167.691C58.263 167.859 55.869 167.985 53.79 167.985C51.585 167.985 49.632 167.901 48.078 167.733ZM49.842 176.637L47.091 176.385C46.923 177.162 46.671 178.191 46.671 179.409C46.671 182.286 49.086 183.903 53.895 183.903C56.835 183.903 59.355 183.63 61.182 183.189L61.161 180.228C59.313 180.753 56.625 181.068 53.79 181.068C50.766 181.068 49.485 180.102 49.485 178.758C49.485 178.044 49.632 177.393 49.842 176.637ZM76.617 167.397L73.635 166.2C73.278 167.082 72.879 167.775 72.606 168.342C71.493 170.337 67.188 178.905 65.634 183.105L68.595 184.113C68.91 183 69.645 180.648 70.191 179.43C70.947 177.729 72.123 176.259 73.551 176.259C74.307 176.259 74.727 176.7 74.79 177.435C74.853 178.296 74.832 180.018 74.916 181.131C75 182.664 76.092 184.05 78.423 184.05C81.636 184.05 83.589 181.656 84.681 178.065L82.413 176.217C81.804 178.821 80.691 181.173 78.864 181.173C78.171 181.173 77.583 180.858 77.499 180.039C77.394 179.157 77.457 177.477 77.415 176.532C77.331 174.789 76.386 173.802 74.811 173.802C74.013 173.802 73.173 173.991 72.396 174.432C73.446 172.584 74.916 169.896 75.945 168.384C76.176 168.048 76.407 167.691 76.617 167.397ZM94.908 168.321V171.009C97.554 171.261 101.355 171.24 103.938 171.009V168.3C101.67 168.573 97.491 168.678 94.908 168.321ZM96.588 177.288L94.173 177.057C93.942 178.128 93.816 178.968 93.816 179.787C93.816 181.95 95.559 183.231 99.171 183.231C101.544 183.231 103.224 183.084 104.589 182.832L104.547 179.997C102.699 180.375 101.145 180.543 99.276 180.543C97.134 180.543 96.336 179.976 96.336 179.052C96.336 178.485 96.42 177.981 96.588 177.288ZM91.674 166.914L88.734 166.662C88.713 167.334 88.587 168.132 88.524 168.72C88.293 170.337 87.642 173.886 87.642 177.036C87.642 179.892 88.041 182.454 88.461 183.903L90.897 183.735C90.876 183.441 90.855 183.105 90.855 182.874C90.855 182.664 90.897 182.202 90.96 181.887C91.191 180.774 91.884 178.485 92.472 176.742L91.17 175.713C90.876 176.406 90.54 177.141 90.225 177.855C90.162 177.435 90.141 176.889 90.141 176.49C90.141 174.39 90.876 170.19 91.149 168.783C91.233 168.405 91.506 167.355 91.674 166.914ZM116.013 166.263L113.031 166.137C113.073 166.83 113.052 167.355 112.926 168.258C112.884 168.51 112.842 168.804 112.8 169.119C111.519 169.098 109.944 168.93 108.684 168.72V171.324C109.755 171.429 110.994 171.492 112.317 171.513C111.771 173.823 110.931 176.616 109.923 178.569L112.401 179.451C112.611 179.094 112.758 178.821 112.989 178.527C114.249 176.931 116.391 176.07 118.806 176.07C120.864 176.07 121.935 177.12 121.935 178.38C121.935 181.467 117.294 182.034 112.695 181.278L113.43 183.987C120.213 184.722 124.77 183.021 124.77 178.296C124.77 175.608 122.523 173.802 119.121 173.802C117.252 173.802 115.614 174.18 113.913 175.125C114.228 174.096 114.564 172.752 114.858 171.471C117.672 171.324 121.011 170.925 123.195 170.568L123.153 168.069C120.612 168.615 117.777 168.93 115.383 169.056C115.425 168.825 115.467 168.594 115.509 168.405C115.656 167.712 115.782 166.998 116.013 166.263ZM137.454 180.27C137.454 179.472 138.252 178.968 139.449 178.968C140.016 178.968 140.583 179.052 141.129 179.199C141.129 179.346 141.129 179.472 141.129 179.577C141.129 180.816 140.688 181.488 139.407 181.488C138.294 181.488 137.454 181.131 137.454 180.27ZM143.691 166.557H140.688C140.772 166.977 140.835 167.628 140.835 167.943C140.835 168.384 140.856 169.245 140.856 170.274C140.373 170.295 139.869 170.295 139.386 170.295C138.126 170.295 136.908 170.232 135.711 170.106V172.605C136.95 172.689 138.147 172.731 139.386 172.731C139.869 172.731 140.373 172.731 140.877 172.71C140.898 174.201 140.982 175.734 141.024 177.036C140.604 176.973 140.142 176.952 139.659 176.952C136.803 176.952 134.997 178.422 134.997 180.543C134.997 182.748 136.803 183.966 139.701 183.966C142.536 183.966 143.67 182.538 143.796 180.522C144.636 181.089 145.476 181.824 146.358 182.643L147.807 180.438C146.799 179.514 145.476 178.443 143.733 177.729C143.649 176.301 143.544 174.621 143.502 172.584C144.657 172.5 145.749 172.374 146.757 172.227V169.602C145.749 169.812 144.657 169.98 143.502 170.085C143.523 169.161 143.544 168.384 143.565 167.922C143.586 167.46 143.628 166.956 143.691 166.557ZM133.443 166.788L130.545 166.536C130.524 167.208 130.419 168.006 130.335 168.594C130.104 170.211 129.474 174.18 129.474 177.351C129.474 180.207 129.873 182.601 130.314 184.071L132.687 183.882C132.666 183.588 132.645 183.231 132.645 183.021C132.645 182.79 132.687 182.328 132.75 182.034C133.002 180.9 133.674 178.758 134.262 177.036L132.981 175.986C132.666 176.7 132.309 177.414 132.036 178.149C131.973 177.729 131.952 177.204 131.952 176.784C131.952 174.684 132.645 170.064 132.96 168.657C133.023 168.279 133.275 167.208 133.443 166.788Z" fill="black"/>
<g filter="url(#filter1_d_2_10)">
<path d="M327.627 13H289.373C264.867 13 245 31.6412 245 54.6364V107.055C245 117.634 257.807 123.73 266.904 117.483L297.789 96.2727H327.627C352.133 96.2727 372 77.6315 372 54.6364C372 31.6412 352.133 13 327.627 13Z" fill="white"/>
</g>
<path d="M282.325 68H287.067V56.8778H299.2V68H303.955V41.8182H299.2V52.902H287.067V41.8182H282.325V68ZM317.602 68.3835C322.179 68.3835 325.324 66.1463 326.142 62.733L321.821 62.2472C321.195 63.9091 319.661 64.7784 317.666 64.7784C314.675 64.7784 312.693 62.8097 312.655 59.4474H326.334V58.0284C326.334 51.1378 322.192 48.108 317.359 48.108C311.734 48.108 308.065 52.2372 308.065 58.2969C308.065 64.4588 311.683 68.3835 317.602 68.3835ZM312.668 56.3281C312.808 53.8224 314.662 51.7131 317.423 51.7131C320.082 51.7131 321.872 53.6562 321.898 56.3281H312.668ZM330.249 48.3636V69.0611C330.249 70.7102 329.546 71.5923 327.769 71.5923C327.539 71.5923 327.36 71.5795 327.104 71.5668V75.3381C327.436 75.3636 327.718 75.3636 328.05 75.3636C332.384 75.3636 334.877 73.3693 334.877 69.125V48.3636H330.249ZM332.55 45.5767C334.02 45.5767 335.222 44.4517 335.222 43.071C335.222 41.6776 334.02 40.5526 332.55 40.5526C331.067 40.5526 329.865 41.6776 329.865 43.071C329.865 44.4517 331.067 45.5767 332.55 45.5767Z" fill="black"/>
<g filter="url(#filter2_d_2_10)">
<path d="M71 30H121C153.033 30 179 56.481 179 89.147V163.611C179 178.639 162.261 187.299 150.369 178.424L110 148.294H71C38.9675 148.294 13 121.813 13 89.147C13 56.481 38.9675 30 71 30Z" fill="white"/>
</g>
<path d="M49.5334 104H54.8033V91.642H68.2834V104H73.5675V74.9091H68.2834V87.2244H54.8033V74.9091H49.5334V104ZM88.7308 104.426C93.8161 104.426 97.3104 101.94 98.2195 98.1477L93.4183 97.608C92.7223 99.4545 91.0178 100.42 88.8018 100.42C85.478 100.42 83.2763 98.233 83.2337 94.4972H98.4325V92.9205C98.4325 85.2642 93.8303 81.8977 88.4609 81.8977C82.2109 81.8977 78.1342 86.4858 78.1342 93.2188C78.1342 100.065 82.1541 104.426 88.7308 104.426ZM83.2479 91.0312C83.4041 88.2472 85.4638 85.9034 88.532 85.9034C91.4865 85.9034 93.4751 88.0625 93.5036 91.0312H83.2479ZM107.925 74.9091H102.783V104H107.925V74.9091ZM118.354 74.9091H113.212V104H118.354V74.9091ZM133.159 104.426C139.551 104.426 143.614 99.9233 143.614 93.1761C143.614 86.4148 139.551 81.8977 133.159 81.8977C126.767 81.8977 122.705 86.4148 122.705 93.1761C122.705 99.9233 126.767 104.426 133.159 104.426ZM133.188 100.307C129.651 100.307 127.918 97.1534 127.918 93.1619C127.918 89.1705 129.651 85.9744 133.188 85.9744C136.668 85.9744 138.401 89.1705 138.401 93.1619C138.401 97.1534 136.668 100.307 133.188 100.307Z" fill="black"/>
<g filter="url(#filter3_d_2_10)">
<path d="M228.47 129H193.53C171.146 129 153 147.641 153 170.636V223.055C153 233.634 164.697 239.73 173.007 233.483L201.217 212.273H228.47C250.854 212.273 269 193.631 269 170.636C269 147.641 250.854 129 228.47 129Z" fill="white"/>
</g>
<path d="M186.648 155.024C185.048 159.568 182.264 164.112 179.384 166.992C180.024 167.92 181.08 170 181.432 170.96C182.136 170.192 182.872 169.328 183.576 168.368V184.72H187.224V162.704C188.408 160.592 189.432 158.352 190.264 156.144L186.648 155.024ZM192.568 169.136C191.832 172.688 190.488 176.304 188.664 178.544C189.592 179.024 191.192 179.984 191.928 180.592C193.72 178 195.352 173.968 196.28 169.904L192.568 169.136ZM205.88 164.144C205.72 165.552 205.528 166.896 205.368 167.888L208.6 168.432C209.048 166.576 209.592 163.6 209.976 161.008L207.288 160.496L206.68 160.624H195.672C196.248 159.056 196.76 157.488 197.176 155.856L193.464 155.024C192.376 159.408 190.456 163.824 188.024 166.544C188.888 167.12 190.424 168.368 191.096 169.04C192.152 167.696 193.208 166 194.104 164.144H197.816V180.464C197.816 180.88 197.656 181.008 197.24 181.008C196.792 181.008 195.448 181.008 194.104 180.976C194.68 182 195.256 183.696 195.416 184.816C197.464 184.816 199 184.656 200.12 184.048C201.272 183.408 201.592 182.352 201.592 180.528V164.144H205.88ZM202.744 169.968C204.28 173.264 205.624 177.648 205.976 180.496L209.624 179.248C209.176 176.368 207.8 172.112 206.136 168.816L202.744 169.968ZM221.016 164.752C220.632 168.016 220.024 170.896 219.096 173.392C218.296 172.816 217.496 172.272 216.728 171.792C217.24 169.552 217.752 167.184 218.264 164.752H221.016ZM222.52 161.168L221.88 161.264H219C219.416 159.184 219.8 157.136 220.12 155.248L216.536 154.928C216.248 156.88 215.864 159.056 215.448 161.264H212.28V164.752H214.776C214.008 168.464 213.208 172.048 212.472 174.672L215.608 176.304L215.864 175.312C216.44 175.728 217.016 176.176 217.592 176.624C216.248 178.96 214.52 180.752 212.376 181.872C213.144 182.576 214.136 183.92 214.648 184.88C217.016 183.408 218.936 181.52 220.472 179.024C221.624 180.112 222.616 181.168 223.288 182.064L225.592 178.992C224.792 177.968 223.544 176.816 222.136 175.664C223.608 171.984 224.472 167.344 224.824 161.52L222.52 161.168ZM241.976 167.568H234.936V165.744C237.176 163.632 239.544 160.656 241.24 158.16L238.744 156.304L237.976 156.496H225.464V160.016H235.416C234.52 161.36 233.4 162.768 232.344 163.856H231.16V167.568H224.408V171.152H231.16V180.496C231.16 180.944 231 181.072 230.456 181.072C229.944 181.104 228.248 181.072 226.616 181.008C227.16 182.064 227.8 183.696 227.992 184.752C230.328 184.784 232.056 184.656 233.336 184.048C234.584 183.472 234.936 182.448 234.936 180.528V171.152H241.976V167.568Z" fill="black"/>
<g filter="url(#filter4_d_2_10)">
<path d="M197.829 37H233.026C255.576 37 273.855 55.6412 273.855 78.6364V131.055C273.855 141.634 262.072 147.73 253.701 141.483L225.283 120.273H197.829C175.28 120.273 157 101.631 157 78.6364C157 55.6412 175.28 37 197.829 37Z" fill="white"/>
</g>
<path d="M179.372 86H185.26C188.591 86 190.224 84.3026 190.224 82.0369C190.224 79.8352 188.662 78.5426 187.114 78.4645V78.3224C188.534 77.9886 189.656 76.9943 189.656 75.2259C189.656 73.0597 188.094 71.4545 184.94 71.4545H179.372V86ZM182.007 83.7983V79.5369H184.912C186.538 79.5369 187.547 80.5312 187.547 81.831C187.547 82.9886 186.751 83.7983 184.841 83.7983H182.007ZM182.007 77.6406V73.6278H184.67C186.219 73.6278 187.021 74.4446 187.021 75.5668C187.021 76.8452 185.984 77.6406 184.614 77.6406H182.007ZM197.161 86.2131C200.357 86.2131 202.389 83.9616 202.389 80.5881C202.389 77.2074 200.357 74.9489 197.161 74.9489C193.965 74.9489 191.934 77.2074 191.934 80.5881C191.934 83.9616 193.965 86.2131 197.161 86.2131ZM197.176 84.1534C195.407 84.1534 194.541 82.5767 194.541 80.581C194.541 78.5852 195.407 76.9872 197.176 76.9872C198.916 76.9872 199.782 78.5852 199.782 80.581C199.782 82.5767 198.916 84.1534 197.176 84.1534ZM207.142 79.608C207.142 78.0312 208.094 77.1222 209.45 77.1222C210.778 77.1222 211.574 77.9957 211.574 79.4517V86H214.145V79.054C214.152 76.4403 212.66 74.9489 210.409 74.9489C208.775 74.9489 207.653 75.7301 207.156 76.9446H207.028V75.0909H204.571V86H207.142V79.608ZM216.758 75.0909V86.5895C216.758 87.5057 216.368 87.9957 215.381 87.9957C215.253 87.9957 215.153 87.9886 215.011 87.9815V90.0767C215.196 90.0909 215.352 90.0909 215.537 90.0909C217.944 90.0909 219.329 88.983 219.329 86.625V75.0909H216.758ZM218.037 73.5426C218.854 73.5426 219.521 72.9176 219.521 72.1506C219.521 71.3764 218.854 70.7514 218.037 70.7514C217.213 70.7514 216.545 71.3764 216.545 72.1506C216.545 72.9176 217.213 73.5426 218.037 73.5426ZM226.732 86.2131C229.928 86.2131 231.959 83.9616 231.959 80.5881C231.959 77.2074 229.928 74.9489 226.732 74.9489C223.536 74.9489 221.505 77.2074 221.505 80.5881C221.505 83.9616 223.536 86.2131 226.732 86.2131ZM226.746 84.1534C224.978 84.1534 224.111 82.5767 224.111 80.581C224.111 78.5852 224.978 76.9872 226.746 76.9872C228.486 76.9872 229.353 78.5852 229.353 80.581C229.353 82.5767 228.486 84.1534 226.746 84.1534ZM241.094 81.4119C241.094 83.0739 239.908 83.8977 238.772 83.8977C237.536 83.8977 236.712 83.0241 236.712 81.6392V75.0909H234.141V82.0369C234.141 84.6577 235.633 86.142 237.778 86.142C239.411 86.142 240.562 85.2827 241.059 84.0611H241.172V86H243.665V75.0909H241.094V81.4119ZM246.309 86H248.88V79.5866C248.88 78.2017 249.924 77.2216 251.338 77.2216C251.771 77.2216 252.311 77.2997 252.531 77.3707V75.0057C252.296 74.9631 251.892 74.9347 251.607 74.9347C250.357 74.9347 249.313 75.6449 248.916 76.9091H248.802V75.0909H246.309V86Z" fill="black"/>
<g filter="url(#filter5_d_2_10)">
<path d="M301.829 116H337.026C359.576 116 377.855 134.641 377.855 157.636V210.055C377.855 220.634 366.072 226.73 357.701 220.483L329.283 199.273H301.829C279.28 199.273 261 180.631 261 157.636C261 134.641 279.28 116 301.829 116Z" fill="white"/>
</g>
<path d="M291.833 167H295.39V158.658H304.489V167H308.056V147.364H304.489V155.676H295.39V147.364H291.833V167ZM318.196 167.288C322.51 167.288 325.252 164.248 325.252 159.694C325.252 155.13 322.51 152.081 318.196 152.081C313.881 152.081 311.139 155.13 311.139 159.694C311.139 164.248 313.881 167.288 318.196 167.288ZM318.215 164.507C315.827 164.507 314.658 162.379 314.658 159.684C314.658 156.99 315.827 154.833 318.215 154.833C320.564 154.833 321.734 156.99 321.734 159.684C321.734 162.379 320.564 164.507 318.215 164.507ZM331.669 147.364H328.198V167H331.669V147.364ZM339.476 167.297C341.787 167.297 343.168 166.214 343.8 164.977H343.916V167H347.252V157.143C347.252 153.251 344.079 152.081 341.269 152.081C338.172 152.081 335.794 153.462 335.027 156.146L338.268 156.607C338.613 155.6 339.591 154.737 341.288 154.737C342.899 154.737 343.781 155.561 343.781 157.009V157.067C343.781 158.064 342.736 158.112 340.138 158.39C337.281 158.697 334.548 159.55 334.548 162.868C334.548 165.763 336.667 167.297 339.476 167.297ZM340.378 164.747C338.93 164.747 337.894 164.085 337.894 162.81C337.894 161.477 339.054 160.921 340.608 160.701C341.519 160.576 343.34 160.346 343.791 159.982V161.717C343.791 163.357 342.468 164.747 340.378 164.747Z" fill="black"/>
</g>
<defs>
<filter id="filter0_d_2_10" x="10" y="118" width="172" height="139" filterUnits="userSpaceOnUse" color-interpolation-filters="sRGB">
<feFlood flood-opacity="0" result="BackgroundImageFix"/>
<feColorMatrix in="SourceAlpha" type="matrix" values="0 0 0 0 0 0 0 0 0 0 0 0 0 0 0 0 0 0 127 0" result="hardAlpha"/>
<feOffset/>
<feGaussianBlur stdDeviation="8"/>
<feColorMatrix type="matrix" values="0 0 0 0 0 0 0 0 0 0 0 0 0 0 0 0 0 0 0.25 0"/>
<feBlend mode="normal" in2="BackgroundImageFix" result="effect1_dropShadow_2_10"/>
<feBlend mode="normal" in="SourceGraphic" in2="effect1_dropShadow_2_10" result="shape"/>
</filter>
<filter id="filter1_d_2_10" x="229" y="-3" width="159" height="139" filterUnits="userSpaceOnUse" color-interpolation-filters="sRGB">
<feFlood flood-opacity="0" result="BackgroundImageFix"/>
<feColorMatrix in="SourceAlpha" type="matrix" values="0 0 0 0 0 0 0 0 0 0 0 0 0 0 0 0 0 0 127 0" result="hardAlpha"/>
<feOffset/>
<feGaussianBlur stdDeviation="8"/>
<feColorMatrix type="matrix" values="0 0 0 0 0 0 0 0 0 0 0 0 0 0 0 0 0 0 0.25 0"/>
<feBlend mode="normal" in2="BackgroundImageFix" result="effect1_dropShadow_2_10"/>
<feBlend mode="normal" in="SourceGraphic" in2="effect1_dropShadow_2_10" result="shape"/>
</filter>
<filter id="filter2_d_2_10" x="-3" y="14" width="198" height="184" filterUnits="userSpaceOnUse" color-interpolation-filters="sRGB">
<feFlood flood-opacity="0" result="BackgroundImageFix"/>
<feColorMatrix in="SourceAlpha" type="matrix" values="0 0 0 0 0 0 0 0 0 0 0 0 0 0 0 0 0 0 127 0" result="hardAlpha"/>
<feOffset/>
<feGaussianBlur stdDeviation="8"/>
<feColorMatrix type="matrix" values="0 0 0 0 0 0 0 0 0 0 0 0 0 0 0 0 0 0 0.25 0"/>
<feBlend mode="normal" in2="BackgroundImageFix" result="effect1_dropShadow_2_10"/>
<feBlend mode="normal" in="SourceGraphic" in2="effect1_dropShadow_2_10" result="shape"/>
</filter>
<filter id="filter3_d_2_10" x="137" y="113" width="148" height="139" filterUnits="userSpaceOnUse" color-interpolation-filters="sRGB">
<feFlood flood-opacity="0" result="BackgroundImageFix"/>
<feColorMatrix in="SourceAlpha" type="matrix" values="0 0 0 0 0 0 0 0 0 0 0 0 0 0 0 0 0 0 127 0" result="hardAlpha"/>
<feOffset/>
<feGaussianBlur stdDeviation="8"/>
<feColorMatrix type="matrix" values="0 0 0 0 0 0 0 0 0 0 0 0 0 0 0 0 0 0 0.25 0"/>
<feBlend mode="normal" in2="BackgroundImageFix" result="effect1_dropShadow_2_10"/>
<feBlend mode="normal" in="SourceGraphic" in2="effect1_dropShadow_2_10" result="shape"/>
</filter>
<filter id="filter4_d_2_10" x="141" y="21" width="148.855" height="139" filterUnits="userSpaceOnUse" color-interpolation-filters="sRGB">
<feFlood flood-opacity="0" result="BackgroundImageFix"/>
<feColorMatrix in="SourceAlpha" type="matrix" values="0 0 0 0 0 0 0 0 0 0 0 0 0 0 0 0 0 0 127 0" result="hardAlpha"/>
<feOffset/>
<feGaussianBlur stdDeviation="8"/>
<feColorMatrix type="matrix" values="0 0 0 0 0 0 0 0 0 0 0 0 0 0 0 0 0 0 0.25 0"/>
<feBlend mode="normal" in2="BackgroundImageFix" result="effect1_dropShadow_2_10"/>
<feBlend mode="normal" in="SourceGraphic" in2="effect1_dropShadow_2_10" result="shape"/>
</filter>
<filter id="filter5_d_2_10" x="245" y="100" width="148.855" height="139" filterUnits="userSpaceOnUse" color-interpolation-filters="sRGB">
<feFlood flood-opacity="0" result="BackgroundImageFix"/>
<feColorMatrix in="SourceAlpha" type="matrix" values="0 0 0 0 0 0 0 0 0 0 0 0 0 0 0 0 0 0 127 0" result="hardAlpha"/>
<feOffset/>
<feGaussianBlur stdDeviation="8"/>
<feColorMatrix type="matrix" values="0 0 0 0 0 0 0 0 0 0 0 0 0 0 0 0 0 0 0.25 0"/>
<feBlend mode="normal" in2="BackgroundImageFix" result="effect1_dropShadow_2_10"/>
<feBlend mode="normal" in="SourceGraphic" in2="effect1_dropShadow_2_10" result="shape"/>
</filter>
<clipPath id="clip0_2_10">
<rect width="400" height="255" fill="white"/>
</clipPath>
</defs>
</svg>